# xmcd
#
# Track frame offsets: 
#        150
#        13689
#        26913
#        42809
#        55889
#        68766
#        84390
#        97845
#        112195
#        126726
#        140264
#        153008
#        167688
#        181536
#        197429
#        210191
#        224796
#        240300
#        254886
#        269164
#        283272
#        297748
#        311668
#        324722
#        339508
#        352280
#
# Disc length: 4867 seconds
#
# Revision: 0
# Processed by: cddbd v1.5.2PL0 Copyright (c) Steve Scherf et al.
# Submitted via: ExactAudioCopy v0.99pb4
#
DISCID=9a13011a
DTITLE=Various Artist - The Bristol Sessions [CD3]
DYEAR=1927
DGENRE=Country
TTITLE0=The Carter Family - Bury Me Under The Weeping Willow
TTITLE1=The Carter Family - Little Log Cabin By The Sea
TTITLE2=The Carter Family - The Poor Orphan Child
TTITLE3=The Carter Family - The Storms Are On The Ocean
TTITLE4=The Carter Family - Single Girl, Married Girl
TTITLE5=The Carter Family - The Wandering Boy
TTITLE6=Alcoa Quartet - Remember Me, O Mighty One
TTITLE7=Alcoa Quartet - I'm Redeemed
TTITLE8=Henry Whitter - Henry Whitter's Fox Chase
TTITLE9=Henry Whitter - Rain Crow Bill
TTITLE10=The Shelor Family - Big Bend Gal
TTITLE11=The Shelor Family - Suzanna Gal
TTITLE12=The Shelor Family - Sandy River Belle (Take 1)
TTITLE13=The Shelor Family - Sandy River Belle (Take 2)
TTITLE14=The Shelor Family - Billy Grimes, The Rover
TTITLE15=Mr. and Mrs. J. W. Baker - The Newmarket Wreck
TTITLE16=Mr. and Mrs. J. W. Baker - On The Banks Of The Sunny Tennessee
TTITLE17=Jimmie Rodgers - The Soldier's Sweetheart
TTITLE18=Jimmie Rodgers - Sleep Baby Sleep
TTITLE19=Tenneva Ramblers - The Longest Train I Ever Saw
TTITLE20=Tenneva Ramblers - Sweet Heaven When I Die
TTITLE21=Tenneva Ramblers - Miss 'Liza, Poor Gal
TTITLE22=West Virginia Coon Hunters - Greasy String
TTITLE23=West Virginia Coon Hunters - You Blue Eyes Run Me Crazy
TTITLE24=Tennessee Mountaineers - Standing On The Promises
TTITLE25=Tennessee Mountaineers - At The River
EXTD=
EXTT0=
EXTT1=
EXTT2=
EXTT3=
EXTT4=
EXTT5=
EXTT6=
EXTT7=
EXTT8=
EXTT9=
EXTT10=
EXTT11=
EXTT12=
EXTT13=
EXTT14=
EXTT15=
EXTT16=
EXTT17=
EXTT18=
EXTT19=
EXTT20=
EXTT21=
EXTT22=
EXTT23=
EXTT24=
EXTT25=
PLAYORDER=
